<svg xmlns="http://www.w3.org/2000/svg" width="100" height="100" viewBox="0 0 100 100">
  <g fill="none" stroke="#e5e7eb" stroke-width="2" stroke-linecap="round" stroke-linejoin="round">
    <!-- Mạch 1 -->
    <path d="M0,20 L20,20 L30,30 L30,50 L40,60 L60,60"/>
    <circle cx="60" cy="60" r="3" fill="#e5e7eb"/>
    <!-- Mạch 2 -->
    <path d="M40,0 L40,10 L50,20 L80,20 L90,30 L90,50"/>
    <circle cx="90" cy="50" r="3" fill="#e5e7eb"/>
    <!-- Mạch 3 -->
    <path d="M0,80 L20,80 L30,70 L30,60"/>
    <circle cx="30" cy="60" r="3" fill="#e5e7eb"/>
    <!-- Mạch 4 -->
    <path d="M100,80 L80,80 L70,90 L70,100"/>
    <circle cx="80" cy="80" r="3" fill="#e5e7eb"/>
    <!-- Điểm kết nối -->
    <circle cx="20" cy="20" r="2" fill="#e5e7eb"/>
    <circle cx="80" cy="20" r="2" fill="#e5e7eb"/>
    <circle cx="20" cy="80" r="2" fill="#e5e7eb"/>
  </g>
</svg>
